<svg xmlns="http://www.w3.org/2000/svg" viewBox="0 0 299.997 299.997" width="512" height="512">
  <path d="M149.996 0C67.156 0 0 67.158 0 149.997c0 82.837 67.157 150 149.996 150s150-67.163 150-150c0-82.84-67.16-149.997-150-149.997zM150 52.686l88.762 55.35H61.236L150 52.686zm89.868 143.737h-.01c0 8.878-7.194 16.072-16.07 16.072H76.21c-8.877 0-16.07-7.195-16.07-16.072v-84.865c0-.94.095-1.852.25-2.75l84.81 52.884c.103.065.214.11.32.17.113.06.227.12.34.178.6.31 1.217.558 1.848.72.065.02.13.027.195.042.692.163 1.393.265 2.093.265h.015c.7 0 1.402-.1 2.094-.265.065-.016.13-.023.195-.04.63-.164 1.244-.413 1.846-.722.114-.057.228-.117.34-.18.106-.06.218-.103.322-.168l84.808-52.883c.156.896.252 1.807.252 2.748v84.865z" fill="#0013bf"/>
</svg>
