<?xml version="1.0" encoding="UTF-8" standalone="no"?>
<!-- Created with Inkscape (http://www.inkscape.org/) -->

<svg
   xmlns:dc="http://purl.org/dc/elements/1.1/"
   xmlns:cc="http://creativecommons.org/ns#"
   xmlns:rdf="http://www.w3.org/1999/02/22-rdf-syntax-ns#"
   xmlns:svg="http://www.w3.org/2000/svg"
   xmlns="http://www.w3.org/2000/svg"
   xmlns:sodipodi="http://sodipodi.sourceforge.net/DTD/sodipodi-0.dtd"
   xmlns:inkscape="http://www.inkscape.org/namespaces/inkscape"
   width="37.043255mm"
   height="13.049955mm"
   viewBox="0 0 131.25563 46.239999"
   id="svg2"
   version="1.1"
   inkscape:version="0.91 r13725"
   sodipodi:docname="signature.svg"
   inkscape:export-filename="/home/piotr/dev/piotrantosz/assets/signature.svg.png"
   inkscape:export-xdpi="108"
   inkscape:export-ydpi="108">
  <defs
     id="defs4" />
  <sodipodi:namedview
     id="base"
     pagecolor="#ffffff"
     bordercolor="#666666"
     borderopacity="1.0"
     inkscape:pageopacity="0.0"
     inkscape:pageshadow="2"
     inkscape:zoom="11.2"
     inkscape:cx="33.42599"
     inkscape:cy="20.703992"
     inkscape:document-units="px"
     inkscape:current-layer="layer1"
     showgrid="false"
     fit-margin-top="0"
     fit-margin-left="0"
     fit-margin-right="0"
     fit-margin-bottom="0"
     inkscape:window-width="1920"
     inkscape:window-height="1025"
     inkscape:window-x="0"
     inkscape:window-y="27"
     inkscape:window-maximized="1" />
  <metadata
     id="metadata7">
    <rdf:RDF>
      <cc:Work
         rdf:about="">
        <dc:format>image/svg+xml</dc:format>
        <dc:type
           rdf:resource="http://purl.org/dc/dcmitype/StillImage" />
        <dc:title></dc:title>
      </cc:Work>
    </rdf:RDF>
  </metadata>
  <g
     inkscape:label="Layer 1"
     inkscape:groupmode="layer"
     id="layer1"
     transform="translate(-308.57144,-468.55648)">
    <g
       style="font-style:normal;font-variant:normal;font-weight:normal;font-stretch:normal;font-size:40px;line-height:125%;font-family:'Mrs Saint Delafield';-inkscape-font-specification:'Mrs Saint Delafield';letter-spacing:0px;word-spacing:0px;fill:#000000;fill-opacity:1;stroke:none;stroke-width:1px;stroke-linecap:butt;stroke-linejoin:miter;stroke-opacity:1"
       id="flowRoot4136" />
    <g
       style="font-style:normal;font-variant:normal;font-weight:normal;font-stretch:normal;font-size:40px;line-height:125%;font-family:'Mrs Saint Delafield';-inkscape-font-specification:'Mrs Saint Delafield';letter-spacing:0px;word-spacing:0px;fill:#000000;fill-opacity:1;stroke:none;stroke-width:1px;stroke-linecap:butt;stroke-linejoin:miter;stroke-opacity:1"
       id="text4144">
      <path
         style="fill:#013bff;fill-opacity:1"
         d="m 318.05078,468.55664 c -1.22667,0 -2.70612,0.2407 -4.43945,0.7207 -0.90667,0.26667 -1.65357,0.65154 -2.24024,1.15821 -0.58666,0.48 -0.8789,1.04164 -0.8789,1.68164 0,1.38666 1.11937,2.6789 3.35937,3.8789 0.96,0.48 1.91891,0.97381 2.87891,1.48047 2.24,1.2 3.36133,2.54573 3.36133,4.03906 0.0533,0.37334 0.14596,0.56055 0.27929,0.56055 0.08,0 0.17459,-0.13372 0.28125,-0.40039 0.10667,-0.26667 0.15821,-0.66588 0.15821,-1.19922 0,-0.96 -0.47946,-1.86737 -1.43946,-2.7207 -0.93333,-0.88 -1.97247,-1.58581 -3.11914,-2.11914 -1.14666,-0.53333 -2.20015,-1.13412 -3.16015,-1.80078 -0.93334,-0.69334 -1.40039,-1.36 -1.40039,-2 0,-0.64 0.44031,-1.17295 1.32031,-1.59961 1.44,-0.69334 3.09232,-1.03906 4.95898,-1.03906 6.10667,0 9.16016,1.79843 9.16016,5.39843 0,0.85334 -0.29224,2.01381 -0.87891,3.48047 -4.42666,3.97334 -8.48015,8.29427 -12.16015,12.96094 -3.68,4.64 -5.51953,7.66674 -5.51953,9.08008 0,0.58666 0.31898,0.8789 0.95898,0.8789 1.25333,0 3.24094,-1.41356 5.96094,-4.24023 2.72,-2.82667 5.34557,-6.11891 7.8789,-9.87891 2.53334,-3.78666 4.2411,-6.94713 5.1211,-9.48047 5.54666,-4.85333 9.66604,-7.27929 12.35937,-7.27929 0.61334,0 0.91992,0.29224 0.91992,0.8789 0,0.82667 -0.58643,2.18675 -1.75976,4.08008 -1.14667,1.86667 -2.57458,3.62792 -4.28125,5.28125 -1.70667,1.65334 -3.17177,2.47852 -4.39844,2.47852 -0.53333,0 -1.05388,-0.22636 -1.56055,-0.67969 -0.48,-0.48 -0.81333,-0.92031 -1,-1.32031 -0.16,-0.4 -0.33286,-0.59961 -0.51953,-0.59961 -0.26666,0 -0.40039,0.21396 -0.40039,0.64062 0.13334,1.89334 1.11899,2.83985 2.95899,2.83985 1.57333,0 3.42721,-0.81279 5.56054,-2.43946 2.16,-1.65333 3.98714,-3.52156 5.48047,-5.60156 1.52,-2.08 2.2793,-3.75906 2.2793,-5.03906 0,-1.12 -0.66667,-1.67969 -2,-1.67969 -3.22667,0 -7.62589,2.27983 -13.19922,6.83985 0.0533,-0.42668 0.0801,-0.72086 0.0801,-0.88086 0,-1.22667 -0.38682,-2.28016 -1.16016,-3.16016 -0.74666,-0.90667 -1.71992,-1.57333 -2.91992,-2 -1.17333,-0.42667 -2.30706,-0.73326 -3.40039,-0.91992 -1.09333,-0.18667 -2.2538,-0.2793 -3.48047,-0.2793 z m 73.66992,1.11914 c -1.6,0 -3.65349,1.57404 -6.16015,4.7207 -1.2,1.52 -2.39961,3.09404 -3.59961,4.72071 -3.41334,4.69333 -6.30636,8.3189 -8.67969,10.8789 -0.10667,-0.0267 -0.27953,-0.0391 -0.51953,-0.0391 -2.85333,-2.85333 -5.86768,-4.28125 -9.04102,-4.28125 -0.72,0 -1.30643,0.13373 -1.75976,0.40039 -0.42667,0.26667 -0.63867,0.6 -0.63867,1 0,1.17334 1.51859,2.18768 4.55859,3.04102 1.70667,0.48 3.81365,0.81333 6.32031,1 -0.0267,0.0267 -0.67898,0.63984 -1.95898,1.83984 -3.54667,3.12 -7.30792,4.67969 -11.28125,4.67969 -1.99433,0 -3.22542,-0.17379 -4.07227,-0.4336 0.55219,-0.31486 1.08512,-0.60258 1.76367,-1.08593 1.94667,-1.41334 3.92188,-2.92149 5.92188,-4.52149 l 0,-0.0801 c 0,-0.18666 -0.0802,-0.27929 -0.24024,-0.27929 -0.16,0 -0.33481,0.0659 -0.52148,0.19922 l -0.83984,0.68164 c -1.52,1.22666 -3.14558,2.43867 -4.87891,3.63867 l -0.48047,0.32031 c -1.01333,0.66667 -1.70674,1 -2.08008,1 -0.29333,0 -0.43945,-0.16047 -0.43945,-0.48047 0,-0.58666 0.4938,-1.34596 1.48047,-2.27929 0.98667,-0.96 1.47851,-1.56079 1.47851,-1.80079 0,-0.26666 -0.10697,-0.66588 -0.32031,-1.19921 -0.21333,-0.56 -0.31836,-0.92008 -0.31836,-1.08008 0,-0.16 0.0659,-0.29373 0.19922,-0.40039 0.13333,-0.10667 0.21357,-0.24039 0.24024,-0.40039 0.0533,-0.16 0.0925,-0.26503 0.11914,-0.31836 0.0533,-0.08 0.16031,-0.20133 0.32031,-0.36133 0.16,-0.18667 0.27937,-0.33279 0.35937,-0.43945 0.10667,-0.13334 0.20125,-0.27946 0.28125,-0.43946 0.10667,-0.18666 0.16016,-0.34713 0.16016,-0.48047 0,-0.13333 -0.0802,-0.26705 -0.24023,-0.40039 -0.13334,-0.13333 -0.29381,-0.19921 -0.48047,-0.19921 -0.18667,0 -0.5324,0.212 -1.03907,0.63867 -0.50666,0.42666 -0.8276,0.76 -0.96093,1 -0.13334,0.24 -0.19922,0.69465 -0.19922,1.36133 l 0,0.35937 c -0.23579,0.40084 -1.24128,1.2803 -2.58203,2.36914 -1.54159,1.22001 -3.17443,2.43239 -4.9961,3.63086 -1.09333,0.74667 -1.80109,1.12109 -2.12109,1.12109 -0.29333,0 -0.43945,-0.21395 -0.43945,-0.64062 0,-1.09333 0.86627,-2.77435 2.59961,-5.04102 1.73333,-2.29333 3.46783,-4.39836 5.20117,-6.31836 1.73333,-1.94666 2.59961,-3.06799 2.59961,-3.36132 l -0.20117,-0.79883 c 2.31999,-0.18667 4.65333,-0.28125 7,-0.28125 l 5.7207,0.28125 c 0.61333,0 0.91992,-0.13373 0.91992,-0.40039 0,-0.37334 -0.17286,-0.62644 -0.51953,-0.75977 -0.34667,-0.13333 -1.33427,-0.20117 -2.96094,-0.20117 -1.6,0 -2.99922,0.0267 -4.19922,0.0801 -0.4,0 -1.18604,0.0143 -2.35937,0.041 -1.14667,0.0267 -2.00055,0.0658 -2.56055,0.11914 -0.53333,0.0267 -1.62596,0.12125 -3.2793,0.28125 -1.65333,0.13334 -4.45372,0.54495 -8.40039,1.23828 -0.53333,0.10668 -0.80078,0.32063 -0.80078,0.64063 0,0.32 0.26745,0.5731 0.80078,0.75977 0.56,0.16 1.02706,0.24023 1.40039,0.24023 0.37334,0 0.5586,-0.0802 0.5586,-0.24023 0,-0.37334 0.10698,-0.57295 0.32031,-0.59961 l 0.80078,-0.16016 c 1.57333,-0.37333 3.82643,-0.69232 6.75977,-0.95898 -0.10667,0.32 -0.77334,1.18626 -2,2.59961 -1.2,1.41332 -2.47985,2.91953 -3.83985,4.51953 -1.01619,1.1991 -1.92817,2.51877 -2.83593,3.84179 l -0.14258,-0.041 c -2.08,1.68 -3.868,2.51953 -5.36133,2.51953 -0.21333,0 -0.37185,-0.0144 -0.47852,-0.041 0.98667,-1.52 1.47852,-3.03859 1.47852,-4.55859 0,-0.98667 -0.27984,-1.74792 -0.83984,-2.28125 -0.56,-0.53333 -1.25342,-0.79883 -2.08008,-0.79883 -0.8,0 -1.50581,0.2655 -2.11914,0.79883 -0.61334,0.53333 -0.91992,1.22674 -0.91992,2.08008 0,0.85333 0.16046,1.66807 0.48046,2.4414 -0.27756,0.27757 -0.38812,0.48849 -0.625,0.75 -1.35722,1.04883 -2.72615,2.09609 -4.27539,3.12891 -1.12,0.74667 -1.82776,1.12109 -2.12109,1.12109 -0.26667,0 -0.40039,-0.18721 -0.40039,-0.56054 0,-0.66667 0.61513,-1.77365 1.8418,-3.32032 1.22666,-1.54666 1.83984,-2.49317 1.83984,-2.83984 0,-0.34667 -0.22831,-0.51953 -0.68164,-0.51953 -0.61333,0 -1.58659,1.08023 -2.91992,3.24023 -1.33334,2.13334 -2,3.58605 -2,4.35938 0,0.64 0.38682,0.95898 1.16015,0.95898 0.45334,0 1.54792,-0.58643 3.28125,-1.75976 0.98732,-0.65821 1.84798,-1.3164 2.75977,-1.97461 -0.46128,0.7479 -0.70117,1.40862 -0.70117,1.97461 0,1.12 0.50815,1.67968 1.52148,1.67968 0.64,0 1.3869,-0.26549 2.24024,-0.79882 0.85333,-0.56 1.63937,-1.28016 2.35937,-2.16016 0.10667,0.0267 0.26714,0.0391 0.48047,0.0391 1.55599,0 3.4167,-0.92546 5.45898,-2.40234 -0.0375,0.0579 -0.0838,0.10591 -0.12109,0.16406 -1.12,1.78667 -1.67969,3.18589 -1.67969,4.19922 0,0.69333 0.38683,1.03906 1.16016,1.03906 0.45333,0 1.54596,-0.58643 3.2793,-1.75976 1.70827,-1.13885 3.29321,-2.27717 4.77539,-3.41602 l 0.004,0.0156 c 0.0726,-0.0573 0.0705,-0.0635 0.14063,-0.11914 0.0423,-0.0321 0.0175,-0.0176 0.0586,-0.0488 1.46031,-1.10998 2.20531,-1.71094 2.10156,-1.71094 l 0,-0.0488 c 0.15354,-0.13771 0.55741,-0.44998 0.65821,-0.55078 0.13333,0.08 0.2938,0.23852 0.48047,0.47852 0.21333,0.21333 0.32031,0.41489 0.32031,0.60156 0,0.16 -0.32094,0.50573 -0.96094,1.03906 -0.61333,0.53334 -1.23891,1.16086 -1.87891,1.88086 -0.64,0.72 -0.96093,1.44016 -0.96093,2.16016 0,0.72 0.33333,1.08008 1,1.08008 0.42096,0 0.97984,-0.18545 1.625,-0.48438 0.25024,0.15296 0.28113,0.33972 0.84375,0.44336 0.98666,0.21333 2.14713,0.32031 3.48047,0.32031 5.25333,0 9.85216,-1.83953 13.79882,-5.51953 l 1.16016,-1.12109 c 1.57333,1.78666 2.94776,3.8669 4.12109,6.24023 0.32,0.66667 0.85295,1 1.59961,1 1.12,0 3.03977,-2.65232 5.75977,-7.95898 3.36,-0.08 5.55961,-0.16024 6.59961,-0.24024 1.04,-0.08 1.73341,-0.24047 2.08008,-0.48047 0.37333,-0.24 0.56054,-0.46635 0.56054,-0.67968 0,-0.21334 -0.10698,-0.32032 -0.32031,-0.32032 l -8.32031,0.59961 c 1.84,-3.68 3.61364,-7.59976 5.32031,-11.75976 1.73333,-4.18667 2.59961,-6.58589 2.59961,-7.19922 0,-0.90667 -0.52055,-1.36133 -1.56055,-1.36133 z m -0.71875,1.04102 c 0.29334,0 0.43946,0.11937 0.43946,0.35937 0,0.61334 -0.90737,3.00016 -2.72071,7.16016 -1.78666,4.16 -3.62619,8.10651 -5.51953,11.83984 -0.85333,0.0533 -1.98706,0.0801 -3.40039,0.0801 -1.38667,0 -3.01225,-0.0267 -4.8789,-0.0801 2.07999,-2.26666 4.31875,-5.12053 6.71874,-8.56055 2.42668,-3.43999 4.37318,-6.09231 5.83985,-7.95898 1.46667,-1.89333 2.64148,-2.83984 3.52148,-2.83984 z m 37.29883,9.03906 c -1.6,0 -2.99922,0.0267 -4.19922,0.0801 -0.4,0 -1.18604,0.0143 -2.35937,0.041 -1.14667,0.0267 -2.00055,0.0658 -2.56055,0.11914 -0.53333,0.0267 -1.62596,0.12125 -3.2793,0.28125 -1.65333,0.13334 -4.45372,0.54495 -8.40039,1.23828 -0.53333,0.10668 -0.80078,0.32063 -0.80078,0.64063 0,0.32 0.26745,0.5731 0.80078,0.75977 0.56,0.16 1.02706,0.24023 1.40039,0.24023 0.37334,0 0.5586,-0.0802 0.5586,-0.24023 0,-0.37334 0.10698,-0.57295 0.32031,-0.59961 l 0.80078,-0.16016 c 1.57333,-0.37333 3.82643,-0.69232 6.75977,-0.95898 -0.10667,0.32 -0.77334,1.18626 -2,2.59961 -1.2,1.41332 -2.47985,2.91953 -3.83985,4.51953 -0.86073,1.01566 -1.6194,2.14933 -2.40234,3.2539 l -0.66602,0.54688 c -1.68,1.38666 -3.52148,2.73239 -5.52148,4.03906 -1.09333,0.72 -1.81349,1.08008 -2.16016,1.08008 -0.32,0 -0.47851,-0.11938 -0.47851,-0.35938 0,-0.24 0.7058,-1.25435 2.11914,-3.04101 1.41333,-1.81334 2.11914,-2.87922 2.11914,-3.19922 0,-0.13333 -0.0926,-0.26706 -0.2793,-0.40039 -0.16,-0.16 -0.33286,-0.24024 -0.51953,-0.24024 -0.64,0 -2.44039,1.08024 -5.40039,3.24024 -2.93333,2.13333 -4.45388,3.19922 -4.56055,3.19922 -0.08,0 -0.11914,-0.0659 -0.11914,-0.19922 0,-0.16 0.7469,-1.18675 2.24024,-3.08008 1.52,-1.92 2.27929,-3.01263 2.27929,-3.2793 0,-0.4 -0.21395,-0.59961 -0.64062,-0.59961 -0.4,0 -0.93294,0.21201 -1.59961,0.63868 -0.66667,0.42666 -1.94651,1.39992 -3.83984,2.91992 l 0.16015,0.59961 c 2.21334,-1.62667 3.35946,-2.43946 3.43946,-2.43946 0.10665,0 0.16015,0.0267 0.16015,0.0801 0,0.24 -0.72017,1.34698 -2.16015,3.32031 -1.49334,1.97334 -2.23829,3.1462 -2.23829,3.51954 0,0.32 0.18526,0.48046 0.5586,0.48046 0.37333,0 0.72101,-0.10697 1.04101,-0.32031 0.32,-0.21333 0.99907,-0.74627 2.03907,-1.59961 1.06666,-0.85333 1.82791,-1.46651 2.28125,-1.83984 0.48,-0.37333 1.95945,-1.38768 4.43945,-3.04102 0.08,0 0.11914,0.0678 0.11914,0.20118 0,0.13333 -0.29224,0.5469 -0.87891,1.24023 -0.56,0.66667 -1.13403,1.44031 -1.7207,2.32031 -0.56,0.88 -0.83984,1.6393 -0.83984,2.2793 0,0.64 0.38682,0.95898 1.16015,0.95898 1.11472,0 4.0836,-2.02811 8.19922,-5.30859 -0.0159,0.0247 -0.0349,0.0456 -0.0508,0.0703 -1.12,1.78667 -1.67969,3.18589 -1.67969,4.19922 0,0.69333 0.38683,1.03906 1.16016,1.03906 0.45333,0 1.54596,-0.58643 3.2793,-1.75976 1.01175,-0.67451 1.89568,-1.34894 2.82812,-2.02344 -0.48205,0.76869 -0.73047,1.44485 -0.73047,2.02344 0,1.12 0.50815,1.67969 1.52149,1.67968 0.64,0 1.3869,-0.26549 2.24023,-0.79882 0.85333,-0.56 1.63938,-1.28016 2.35938,-2.16016 0.10666,0.0267 0.26713,0.0391 0.48046,0.0391 1.50638,0 3.30544,-0.88925 5.26758,-2.27343 l 0.0312,0.11328 1.13086,-0.89649 c 0.0178,-0.0144 0.033,-0.0187 0.0508,-0.0332 0.0462,-0.0401 0.0905,-0.0703 0.13672,-0.0703 0.08,0 0.1211,0.25505 0.1211,0.76172 0,0.48 -0.17287,1.37302 -0.51954,2.67968 -0.34666,1.30667 -0.82807,1.95899 -1.4414,1.95899 -0.29334,0 -0.59992,-0.19961 -0.91992,-0.59961 -0.29334,-0.42667 -0.50534,-0.64063 -0.63868,-0.64063 -0.13333,0 -0.2814,0.10698 -0.4414,0.32032 -0.16,0.18666 -0.24024,0.42737 -0.24024,0.7207 0,0.29333 0.20157,0.54643 0.60157,0.75976 0.42666,0.24 0.94526,0.35938 1.55859,0.35938 0.61333,0 2.05365,-0.7593 4.32031,-2.2793 1.47177,-0.97547 2.81068,-2.06948 4.1836,-3.13281 l 0.0254,0.0918 1.24023,-1 c 1.73333,-1.38667 2.9062,-2.07813 3.51953,-2.07813 0.26667,0 0.40039,0.14611 0.40039,0.43946 0,0.61333 -0.61317,1.45286 -1.83984,2.51953 -1.22667,1.04 -2.25341,1.81364 -3.08008,2.32031 -0.82667,0.50667 -1.42745,0.87914 -1.80078,1.11914 -0.37333,0.21333 -0.55859,0.36141 -0.55859,0.44141 0,0.24 0.19961,0.35937 0.59961,0.35937 1.65333,0.10667 2.54635,0.85356 2.67968,2.24024 -2.8,1.75999 -5.40078,3.87937 -7.80078,6.35937 -1.22666,1.22667 -2.21232,2.49411 -2.95898,3.80078 -0.77334,1.33333 -1.16016,2.55969 -1.16016,3.67969 0,0.77333 0.34573,1.16016 1.03906,1.16016 0.90667,0 2.33459,-0.85389 4.28125,-2.56055 1.92,-1.68 3.70605,-3.71914 5.35938,-6.11914 1.65333,-2.4 2.48047,-4.4 2.48047,-6 l 0,-0.20117 c 1.17333,-0.74667 2.20008,-1.27961 3.08008,-1.59961 0.32,-0.13334 0.48046,-0.29381 0.48046,-0.48047 0,-0.18667 -0.10697,-0.2793 -0.32031,-0.2793 -0.21333,0 -0.68039,0.17287 -1.40039,0.51953 -0.69333,0.32 -1.3476,0.66768 -1.96094,1.04102 -0.29333,-1.01334 -1.10612,-1.69435 -2.43945,-2.04102 -0.0533,0 -0.0801,-0.0535 -0.0801,-0.16015 0,-0.10667 0.10697,-0.21365 0.32032,-0.32032 4.85332,-2.69333 7.27929,-4.8251 7.27929,-6.39843 0,-0.77334 -0.36008,-1.16016 -1.08008,-1.16016 -0.98946,0 -2.5132,0.86035 -4.375,2.26367 -0.10783,0.0291 -0.20893,0.0444 -0.35351,0.13477 l -1.11914,0.88086 c -2.08,1.70666 -4.05326,3.13263 -5.91992,4.27929 -0.13334,0 -0.20118,-0.11937 -0.20118,-0.35937 0,-0.24 0.14808,-1.13302 0.44141,-2.67969 0.32,-1.54667 0.5731,-2.53427 0.75977,-2.96094 0.18666,-0.45333 0.27929,-0.74557 0.27929,-0.8789 0,-0.13334 -0.0926,-0.20118 -0.27929,-0.20118 -0.29334,0 -0.51969,0.21396 -0.67969,0.64063 -0.23049,0.39182 -1.23714,1.26719 -2.52344,2.31641 -1.83454,1.37903 -3.46343,2.16406 -4.81641,2.16406 -0.21333,0 -0.37184,-0.0144 -0.47851,-0.041 0.98667,-1.52 1.47851,-3.03859 1.47851,-4.55859 0,-0.98667 -0.27984,-1.74792 -0.83984,-2.28125 -0.56,-0.53333 -1.25341,-0.79883 -2.08008,-0.79883 -0.8,0 -1.5058,0.2655 -2.11914,0.79883 -0.61333,0.53333 -0.91992,1.22674 -0.91992,2.08008 0,0.85333 0.16047,1.66807 0.48047,2.4414 -0.24486,0.24486 -0.33759,0.42974 -0.55078,0.66211 -1.39433,1.07893 -2.81348,2.15479 -4.42774,3.2168 -1.09333,0.74667 -1.80109,1.12109 -2.12109,1.12109 -0.29333,0 -0.43945,-0.21395 -0.43945,-0.64062 0,-1.09333 0.86627,-2.77435 2.59961,-5.04102 1.73333,-2.29333 3.46783,-4.39836 5.20117,-6.31836 1.73333,-1.94666 2.59961,-3.06799 2.59961,-3.36132 l -0.20118,-0.79883 c 2.32,-0.18667 4.65335,-0.28125 7,-0.28125 l 5.72071,0.28125 c 0.61333,0 0.91992,-0.13373 0.91992,-0.40039 0,-0.37334 -0.17286,-0.62644 -0.51953,-0.75977 -0.34667,-0.13333 -1.33427,-0.20117 -2.96094,-0.20117 z m -102.96875,0.52148 c -1.94667,4.10667 -4.61333,8.39891 -8,12.87891 -3.38667,4.48 -5.73435,6.7207 -7.04101,6.7207 -0.10667,0 -0.16016,-0.0678 -0.16016,-0.20117 0,-1.28 1.54729,-3.87883 4.64062,-7.79883 3.09334,-3.94666 6.61388,-7.81294 10.56055,-11.59961 z m 7.625,5.71875 c -0.24,0 -0.57333,0.2531 -1,0.75977 -0.42667,0.50667 -0.64062,0.88109 -0.64062,1.12109 0,0.21334 0.0659,0.41295 0.19921,0.59961 0.13334,0.16 0.3473,0.24024 0.64063,0.24024 0.29333,0 0.64102,-0.22636 1.04102,-0.67969 0.4,-0.45333 0.59961,-0.82776 0.59961,-1.12109 0,-0.29334 -0.0802,-0.51969 -0.24024,-0.67969 -0.13333,-0.16 -0.33294,-0.24024 -0.59961,-0.24024 z m 31.00391,0.51953 c 2.42666,10e-6 4.88133,1.10698 7.36133,3.32032 -1.97334,-0.21334 -3.65435,-0.47883 -5.04102,-0.79883 -2.42667,-0.61333 -3.64062,-1.25326 -3.64063,-1.91992 10e-6,-0.4 0.44032,-0.60156 1.32032,-0.60157 z m -26.86524,1.32032 c 0.45334,0 0.92039,0.2407 1.40039,0.7207 0.48,0.45333 0.72071,1.17349 0.72071,2.16016 0,0.96 -0.41357,2.13286 -1.24024,3.51953 -0.66666,-0.45334 -1.21396,-1.14675 -1.64062,-2.08008 -0.0119,-0.0267 -0.006,-0.0534 -0.0176,-0.0801 0.11284,-0.10245 0.67019,-0.51953 0.63867,-0.51953 l 0,-0.12109 c 0,-0.16 -0.0678,-0.23828 -0.20117,-0.23828 -0.10667,0 -0.26518,0.0659 -0.47852,0.19921 l -0.0937,0.0762 c -0.24806,-0.732 -0.48632,-1.46332 -0.48632,-2.19532 0,-0.96 0.4651,-1.4414 1.39843,-1.4414 z m 80.70313,0 c 0.45333,0 0.92039,0.2407 1.40039,0.7207 0.48,0.45333 0.7207,1.17349 0.7207,2.16016 0,0.96 -0.41357,2.13286 -1.24023,3.51953 -0.66667,-0.45334 -1.21396,-1.14675 -1.64063,-2.08008 -0.0156,-0.0352 -0.008,-0.0703 -0.0234,-0.10547 0.10017,-0.0923 0.63539,-0.49414 0.60547,-0.49414 l 0,-0.12109 c 0,-0.16 -0.0659,-0.23828 -0.19921,-0.23828 -0.13334,0 -0.29381,0.0659 -0.48047,0.19921 l -0.0606,0.0488 c -0.24194,-0.72289 -0.48047,-1.44507 -0.48047,-2.16797 0,-0.96 0.4651,-1.4414 1.39844,-1.4414 z m -43.83789,3.36133 c 1.33333,0.0533 2.36008,0.0801 3.08008,0.0801 0.74666,0 2.61294,-0.0267 5.5996,-0.0801 -2.21332,4.4 -3.60015,6.5996 -4.16015,6.59961 -0.29333,-10e-6 -0.51969,-0.18722 -0.67969,-0.56055 -0.98667,-2.13334 -2.26651,-4.14573 -3.83984,-6.03906 z m -38.625,2.11914 c 0.56,0.93333 1.19992,1.5876 1.91992,1.96093 -1.06667,1.41334 -1.94534,2.11914 -2.63867,2.11914 -0.69334,0 -1.04102,-0.26744 -1.04102,-0.80078 0,-0.90666 0.58643,-1.99929 1.75977,-3.27929 z m 80.70312,0 c 0.56,0.93333 1.19992,1.5876 1.91992,1.96093 -1.06666,1.41334 -1.94533,2.11914 -2.63867,2.11914 -0.69333,0 -1.04101,-0.26744 -1.04101,-0.80078 0,-0.90666 0.58643,-1.99929 1.75976,-3.27929 z m 17.50782,7.40039 c -0.18667,1.46666 -0.96032,3.25271 -2.32032,5.35937 -1.36,2.13334 -2.78596,3.94613 -4.27929,5.43945 -1.49334,1.49334 -2.56118,2.24024 -3.20118,2.24024 -0.29333,0 -0.43945,-0.19961 -0.43945,-0.59961 0,-2 1.02675,-4.13372 3.08008,-6.40039 2.02667,-2.24 4.41348,-4.2524 7.16016,-6.03906 z"
         id="path4206" />
    </g>
  </g>
</svg>
